<?xml version="1.0" encoding="UTF-8" standalone="no"?>
<!-- Created with Inkscape (http://www.inkscape.org/) -->

<svg
   xmlns:dc="http://purl.org/dc/elements/1.1/"
   xmlns:cc="http://creativecommons.org/ns#"
   xmlns:rdf="http://www.w3.org/1999/02/22-rdf-syntax-ns#"
   xmlns:svg="http://www.w3.org/2000/svg"
   xmlns="http://www.w3.org/2000/svg"
   xmlns:sodipodi="http://sodipodi.sourceforge.net/DTD/sodipodi-0.dtd"
   xmlns:inkscape="http://www.inkscape.org/namespaces/inkscape"
   width="1000"
   height="1052.3622"
   viewBox="0 0 744.09449 1052.3622"
   id="svg2"
   version="1.1"
   inkscape:version="0.91 r13725"
   sodipodi:docname="converted_pdf.svg">
  <sodipodi:namedview
     id="base"
     pagecolor="#ffffff"
     bordercolor="#666666"
     borderopacity="1.0"
     inkscape:pageopacity="0.0"
     inkscape:pageshadow="2"
     inkscape:zoom="0.60351201"
     inkscape:cx="396.28829"
     inkscape:cy="827.34278"
     inkscape:document-units="px"
     inkscape:current-layer="svg2"
     showgrid="false"
     inkscape:window-width="1436"
     inkscape:window-height="855"
     inkscape:window-x="4"
     inkscape:window-y="0"
     inkscape:window-maximized="1"
     units="px" />
  <defs
     id="defs4" />
  <metadata
     id="metadata7">
    <rdf:RDF>
      <cc:Work
         rdf:about="">
        <dc:format>image/svg+xml</dc:format>
        <dc:type
           rdf:resource="http://purl.org/dc/dcmitype/StillImage" />
        <dc:title />
      </cc:Work>
    </rdf:RDF>
  </metadata>
  <g
     id="layer1"
     inkscape:groupmode="layer"
     inkscape:label="Layer 1" />
  <path
     style="opacity:1;fill:none;stroke:#000000;stroke-width:0.89999998;stroke-miterlimit:4;stroke-dasharray:none"
     d="m 39.173881,340.45275 c -0.40904,2.2507 -0.25061,4.90233 0.24772,6.99393 1.2588,5.28204 5.60265,8.23489 8.59264,14.11726 0.99379,1.96008 0.27366,5.97146 -1.3308,6.44027 -3.2867,0.95883 -7.7256,-0.017 -11.65754,0.12516 -3.69573,0.13364 -7.36553,0.6173 -11.00653,1.09247 -1.05139,0.13576 -1.88387,0.98004 -2.93527,1.12853 -1.31064,0.18455 -3.59491,0.33729 -3.99818,-0.10819 -5.73227,-6.31511 -22.0159499,0.67034 -24.3923899,-9.28493 -0.49257,-2.05554 0.34855,-4.74747 2.06247,-6.41906 4.65782,-4.54383 10.11644,-8.69945 14.371,-14.33999 -3.71302,1.24732 -7.46348,2.44586 -11.12752,3.7547 -5.24546,1.87523 -10.1510101,4.38473 -15.7018101,5.62145 -7.37129,1.64188 -12.32581,-1.23672 -13.11796,-6.43179 -0.31686,-2.08524 -1.24439,-4.17048 -2.25546,-6.17723 -2.45998,-4.89596 -6.14707,-9.65616 -7.24743,-14.66031 -0.48393,-2.18918 4.14221,-4.84081 7.01122,-7.87851 -0.28805,-0.19092 -2.0567,-1.36824 -3.81671,-2.54132 3.76775,-2.86376 7.23879,-5.50053 9.42512,-7.16363 0.28517,-3.20317 0.47817,-5.3669 0.67117,-7.53274 3.40767,0.57911 7.59021,0.49002 10.08187,1.85826 6.27093,3.44499 11.2024101,7.09999 18.1819501,8.71642 23.5339899,5.44538 21.2209199,-14.56697 11.3003499,-15.80369 -9.0736899,-1.12853 -18.3518999,-1.38309 -27.37086,-2.66011 -2.95831,-0.4179 -7.76881,-2.80436 -7.6219,-4.00502 0.29669,-2.45222 3.60067,-4.63717 5.23969,-7.07242 1.54109,-2.28888 2.62417,-4.73898 3.70437,-7.16363 0.3111,-0.70003 -0.38311,-1.62067 -0.0835,-2.32919 0.37159,-0.87822 1.23287,-2.32706 1.98757,-2.3504 10.7357601,-0.30335 9.3473401,-13.57633 23.18256,-10.05073 2.85749,0.72761 5.91374,2.57102 7.25607,4.43353 3.65252,5.06566 6.44088,10.41558 11.68346,15.78035 0.12386,-2.85315 0.33126,-5.7063 0.35431,-8.56157 0.0317,-4.08775 -0.90449,-8.2858 0.0835,-12.23991 1.31641,-5.25022 7.29352,-6.79877 14.30475,-4.69019 2.81716,0.84852 5.91662,1.32581 8.94695,1.71825 7.40586,0.95671 15.20347,1.10732 22.11388,2.93376 3.02456,0.79973 4.27472,4.90021 6.82975,8.13943 0.38023,-0.0785 2.70483,-0.55578 5.02078,-1.03307 1.91844,3.69319 3.6842,7.09151 4.79609,9.23614 3.9665,1.76493 6.6454,2.9571 9.324299,4.15139 -2.318829,1.76068 -4.142209,4.32109 -7.048669,5.13779 -9.74774,2.74497 -19.94772,4.75383 -29.85965,7.25273 -14.99031,3.77592 -20.32507,6.73725 -20.50942,14.03241 0.1181,2.76193 5.4903,9.06007 16.96348,8.9031 0.2218,-0.0149 0.44648,-0.0276 0.66828,-0.0424 11.16208,-0.69367 19.10084,-4.5014 24.61995,-11.09228 4.53973,-5.41993 9.28685,-10.78682 14.636009,-15.82703 1.75425,-1.65249 6.86144,-3.585 8.38812,-2.96558 3.12251,1.26853 4.66359,4.28715 7.21575,6.38087 2.39661,1.96645 5.19361,3.72289 7.95604,5.46447 0.80079,0.50275 2.29867,0.4773 3.11098,0.9758 1.01107,0.61942 2.5752,1.79462 2.29579,2.27404 -3.95786,6.80301 14.14056,11.8008 3.85992,18.83927 -2.12007,1.45097 -5.79852,2.53496 -8.8058,2.54556 -8.17496,0.034 -16.37297,-0.5982 -25.59069,0.2885 3.71877,1.33854 7.40298,2.72799 11.16496,4.00078 5.3866,1.82644 11.31475,3.09922 16.13677,5.46022 6.40055,3.13529 6.01744,7.53274 0.38311,10.95652 -2.2641,1.37461 -4.15661,3.0865 -5.9051,4.79839 -4.27184,4.17684 -7.63919,8.95189 -12.8616,12.43931 -2.28426,1.52521 -8.20953,0.49002 -13.524119,0.64699 -0.0519,0.26941 -0.36583,1.92402 -0.67693,3.5744 -5.66025,-0.44123 -10.86538,-0.84428 -14.14919,-1.09884 -3.94346,1.68219 -6.60796,2.81921 -9.27245,3.95623 -1.38554,-2.21888 -3.25213,-4.51837 -3.92617,-6.64604 -3.59779,-11.35744 -4.01547,-12.26748 -8.4659,-18.21136 -2.5752,-3.44075 -17.05854,-10.25013 -19.91315,2.21251 -0.006,0.0212 -0.009,0.0424 -0.0144,0.0636 M 170.91525,317.74634 c -0.18148,0.99701 -0.10947,2.17009 0.10945,3.09709 0.55883,2.33768 2.48015,3.6444 3.80519,6.24936 0.44073,0.86761 0.12098,2.64314 -0.59051,2.85103 -1.45467,0.42426 -3.4192,-0.008 -5.15904,0.0552 -1.63614,0.0594 -3.26365,0.27365 -4.87387,0.48366 -0.46377,0.0615 -0.83248,0.43486 -1.29912,0.50062 -0.57898,0.0806 -1.59006,0.1485 -1.76865,-0.0488 -2.53775,-2.79588 -9.74774,0.29698 -10.79913,-4.10896 -0.21892,-0.91216 0.15266,-2.10221 0.91025,-2.84255 2.06534,-2.01311 4.47923,-3.85016 6.3631,-6.34905 -1.6419,0.55366 -3.30397,1.08186 -4.92571,1.6631 -2.32172,0.82943 -4.49364,1.94099 -6.95074,2.48828 -3.26365,0.72761 -5.45862,-0.54729 -5.80716,-2.84678 -0.14115,-0.92489 -0.55306,-1.84765 -0.99955,-2.73436 -1.08885,-2.17009 -2.71922,-4.27654 -3.20892,-6.49118 -0.21316,-0.96943 1.83491,-2.14251 3.10522,-3.48742 -0.12674,-0.0848 -0.91025,-0.60669 -1.69088,-1.12429 1.66784,-1.27066 3.20604,-2.43737 4.1739,-3.17346 0.12674,-1.41703 0.21029,-2.37586 0.2967,-3.33257 1.50652,0.25456 3.35871,0.21637 4.46195,0.82094 2.77684,1.52522 4.96029,3.14377 8.0511,3.85865 10.4189,2.41192 9.39343,-6.44875 5.00061,-6.99605 -4.01546,-0.50063 -8.12311,-0.61306 -12.11553,-1.17732 -1.31065,-0.18668 -3.43937,-1.24308 -3.37599,-1.77341 0.1325,-1.08611 1.59581,-2.05342 2.32171,-3.13104 0.68269,-1.01398 1.16086,-2.09797 1.63902,-3.17135 0.13827,-0.30971 -0.16994,-0.71699 -0.0375,-1.03095 0.16419,-0.38819 0.5473,-1.03095 0.88145,-1.03943 4.75288,-0.13577 4.13645,-6.01178 10.26335,-4.4505 1.26456,0.32244 2.61553,1.13914 3.2118,1.96221 1.61598,2.24221 2.85173,4.61171 5.17056,6.98544 0.0576,-1.26217 0.14691,-2.52434 0.15844,-3.78864 0.0144,-1.80947 -0.4004,-3.66985 0.0375,-5.41992 0.58186,-2.32495 3.22907,-3.01013 6.33141,-2.07676 1.24728,0.37547 2.61842,0.5876 3.96362,0.76155 3.27806,0.42426 6.72893,0.49002 9.78807,1.29824 1.33945,0.35425 1.89251,2.17009 3.02456,3.60408 0.16708,-0.0339 1.19543,-0.24607 2.22089,-0.4582 0.84977,1.63553 1.63039,3.13953 2.12296,4.08987 1.75713,0.78064 2.94391,1.30885 4.12781,1.83705 -1.02547,0.78064 -1.83202,1.91341 -3.11962,2.27616 -4.31505,1.21338 -8.83173,2.10433 -13.21878,3.20952 -6.63676,1.67159 -8.9988,2.98255 -9.07945,6.21117 0.0518,1.22399 2.42828,4.01138 7.50955,3.9435 0.0979,-0.006 0.19588,-0.0127 0.2967,-0.0191 4.94012,-0.30759 8.45438,-1.99402 10.89995,-4.91081 2.00773,-2.39919 4.11052,-4.77717 6.47833,-7.00666 0.77774,-0.73185 3.03896,-1.58673 3.71301,-1.31309 1.38266,0.56215 2.06535,1.89857 3.19452,2.82346 1.06003,0.87185 2.29866,1.65037 3.52289,2.4204 0.35431,0.22274 1.01683,0.21213 1.3769,0.43275 0.44648,0.27364 1.14069,0.79336 1.01682,1.00549 -1.75424,3.01225 6.25942,5.22477 1.70817,8.34096 -0.93906,0.64275 -2.56656,1.12217 -3.89737,1.12853 -3.62083,0.0127 -7.25031,-0.26728 -11.33203,0.12516 1.64766,0.59396 3.27805,1.20914 4.943,1.77341 2.38796,0.80609 5.01214,1.37036 7.14661,2.41616 2.83157,1.38733 2.66161,3.33468 0.16707,4.84929 -0.99955,0.60881 -1.83778,1.36824 -2.61265,2.12555 -1.8925,1.84977 -3.38175,3.96259 -5.69481,5.50689 -1.01108,0.67458 -3.63524,0.21638 -5.98576,0.28638 -0.023,0.11879 -0.16131,0.85276 -0.29958,1.58249 -2.50607,-0.19516 -4.8105,-0.37335 -6.26517,-0.4879 -1.7456,0.7467 -2.92374,1.24945 -4.10476,1.75219 -0.61355,-0.98216 -1.44027,-2.00038 -1.73696,-2.94224 -1.59582,-5.02748 -1.78017,-5.43053 -3.74758,-8.06307 -1.1407,-1.52309 -7.55277,-4.53534 -8.81732,0.98005 -0.003,0.0106 -0.003,0.0191 -0.006,0.0297 M 330.3615,219.70618 c -0.5617,0.58972 -1.04275,1.35551 -1.31928,1.99827 -0.69133,1.62491 -0.0547,2.92527 -0.38023,4.90657 -0.10946,0.65972 -1.10613,1.71189 -1.65343,1.67158 -1.11765,-0.0827 -2.17481,-0.83579 -3.31262,-1.21975 -1.06868,-0.36061 -2.19785,-0.61942 -3.31838,-0.87609 -0.32262,-0.0764 -0.72589,0.0721 -1.05139,0.002 -0.40616,-0.0891 -1.0802,-0.29274 -1.10613,-0.46244 -0.36295,-2.39707 -6.34006,-2.1807 -5.03518,-5.24386 0.27077,-0.63214 1.03988,-1.30036 1.85507,-1.58673 2.21801,-0.78064 4.58005,-1.364 6.89889,-2.49677 -1.29337,-0.0466 -2.58961,-0.11455 -3.88009,-0.13789 -1.85218,-0.0382 -3.73317,0.14213 -5.54503,-0.10606 -2.40237,-0.33092 -3.22909,-1.67583 -2.42254,-3.2265 0.32551,-0.62154 0.47818,-1.31097 0.5934,-1.98342 0.27653,-1.64613 0.18147,-3.38559 0.86415,-4.91505 0.29958,-0.66821 2.12872,-0.91853 3.54307,-1.46582 -0.0432,-0.0849 -0.30822,-0.6067 -0.57323,-1.12853 1.63326,-0.40093 3.13403,-0.77216 4.07884,-1.00338 0.71725,-0.87397 1.20118,-1.4637 1.68511,-2.05129 0.84688,0.53032 2.04519,0.95458 2.47438,1.60794 1.08597,1.64613 1.7485,3.2074 3.39616,4.41443 5.55367,4.07077 8.87494,-1.82008 6.32278,-3.23711 -2.33323,-1.29612 -4.89979,-2.36737 -7.18694,-3.69743 -0.75182,-0.43698 -1.63327,-1.62703 -1.35674,-1.94947 0.57035,-0.65973 1.93861,-0.92065 2.88342,-1.43188 0.89009,-0.47942 1.67935,-1.05216 2.46574,-1.62067 0.22756,-0.16334 0.21604,-0.49639 0.43785,-0.66609 0.27941,-0.20577 0.8123,-0.52184 1.02835,-0.4476 3.08793,1.07126 5.33187,-2.82133 8.53214,-0.33728 0.65965,0.51123 1.1551,1.36187 1.16375,2.03008 0.0259,1.8222 -0.25062,3.63167 0.16131,5.70842 0.60202,-0.79124 1.2271,-1.574 1.80033,-2.37585 0.82096,-1.14975 1.3913,-2.43526 2.45422,-3.44288 1.41434,-1.33854 3.40767,-1.13065 4.96316,0.2185 0.62796,0.54093 1.40571,1.00974 2.18345,1.44673 1.89827,1.06701 4.06443,1.94947 5.65161,3.20953 0.69421,0.54941 0.23332,1.84128 0.3111,3.02921 0.12099,0.0191 0.87281,0.13364 1.61887,0.25032 -0.193,1.24732 -0.36871,2.39494 -0.48106,3.12043 0.76911,0.92489 1.28761,1.54855 1.8061,2.17433 -1.00531,0.24607 -2.0279,0.77215 -3.00728,0.68943 -3.29533,-0.27577 -6.57051,-0.80822 -9.86008,-1.17096 -4.97468,-0.54942 -7.06884,-0.2885 -8.56672,1.74795 -0.51561,0.79124 -0.25349,3.14589 3.01304,4.33806 0.0663,0.0191 0.13251,0.0382 0.19876,0.0594 3.28382,1.00549 6.27957,0.787 9.14283,-0.4773 2.35627,-1.03943 4.75865,-2.04069 7.26759,-2.88497 0.82384,-0.27789 2.64721,-0.27365 2.95543,0.0658 0.62796,0.69367 0.46377,1.70977 0.76622,2.57526 0.28518,0.81458 0.7259,1.61007 1.15798,2.39707 0.12674,0.22911 0.55307,0.38396 0.68557,0.61094 0.16131,0.28425 0.3687,0.78276 0.19588,0.88882 -2.46863,1.49128 1.6419,4.8493 -2.65298,5.72752 -0.8872,0.18031 -2.13735,0.0891 -2.98712,-0.23122 -2.31307,-0.86974 -4.49939,-1.93251 -7.27335,-2.67284 0.7835,0.77639 1.54397,1.56551 2.3534,2.32918 1.15797,1.0946 2.57519,2.09161 3.46529,3.27742 1.18389,1.57188 0.20163,2.77041 -2.06536,3.12892 -0.91312,0.14424 -1.78592,0.42426 -2.6184,0.71912 -2.03366,0.717 -3.93193,1.70128 -6.09521,2.1213 -0.9477,0.18455 -2.4139,-0.74458 -3.94346,-1.27278 -0.0662,0.07 -0.48393,0.50274 -0.89873,0.93337 -1.5094,-0.73185 -2.89782,-1.40643 -3.77062,-1.8328 -1.44603,0.0509 -2.42541,0.0848 -3.40192,0.11667 0.0519,-0.77428 -0.0172,-1.6228 0.21316,-2.29525 1.23864,-3.58925 1.30488,-3.89047 1.22999,-6.04571 -0.0432,-1.24945 -2.77683,-4.72626 -6.05489,-1.52098 -0.006,0.006 -0.0115,0.0106 -0.0172,0.017 m 353.30647,86.29026 c -0.23044,1.26005 -0.14115,2.74708 0.13827,3.91804 0.70573,2.95922 3.1369,4.61383 4.81337,7.91033 0.55882,1.09884 0.15555,3.34742 -0.74606,3.60834 -1.84066,0.53881 -4.32944,-0.008 -6.53018,0.07 -2.0711,0.0764 -4.1278,0.34577 -6.16722,0.61306 -0.59051,0.0764 -1.05716,0.54941 -1.64767,0.63214 -0.73166,0.10395 -2.01061,0.1888 -2.23818,-0.0594 -3.2118,-3.54045 -12.33734,0.37547 -13.66814,-5.20355 -0.27653,-1.15187 0.19587,-2.66012 1.15509,-3.59773 2.60976,-2.54556 5.6689,-4.87263 8.0511,-8.03337 -2.07687,0.69791 -4.17966,1.36824 -6.23348,2.10221 -2.93815,1.05217 -5.68906,2.45859 -8.79716,3.15013 -4.13069,0.92065 -6.90753,-0.69154 -7.35113,-3.60409 -0.17859,-1.16883 -0.69709,-2.33767 -1.26168,-3.45984 -1.37977,-2.74496 -3.44511,-5.41144 -4.06443,-8.2158 -0.27078,-1.22611 2.32171,-2.71314 3.92905,-4.41443 -0.16131,-0.10818 -1.15221,-0.76579 -2.13736,-1.42339 2.11143,-1.60582 4.0558,-3.08225 5.28003,-4.01562 0.16131,-1.79462 0.26789,-3.008 0.37734,-4.21927 1.9098,0.32456 4.25168,0.27365 5.64874,1.04156 3.51426,1.92826 6.27669,3.97744 10.18846,4.88323 13.1871,3.05256 11.89086,-8.16276 6.33141,-8.8543 -5.08414,-0.63427 -10.28351,-0.7764 -15.33597,-1.49128 -1.65919,-0.23546 -4.35249,-1.57189 -4.27184,-2.24434 0.16707,-1.3746 2.01926,-2.59859 2.93527,-3.96259 0.86416,-1.28339 1.47195,-2.65587 2.07687,-4.01562 0.17571,-0.39244 -0.21604,-0.90792 -0.0461,-1.3046 0.2074,-0.49214 0.68845,-1.3046 1.11189,-1.31733 6.01743,-0.1697 5.23969,-7.60698 12.99122,-5.63206 1.60158,0.40942 3.31261,1.44249 4.06443,2.48617 2.04807,2.83618 3.60932,5.8357 6.54746,8.84158 0.072,-1.59946 0.18724,-3.1968 0.19876,-4.79626 0.0173,-2.291 -0.50697,-4.64565 0.0461,-6.86028 0.73742,-2.94225 4.08748,-3.80986 8.01654,-2.6283 1.57853,0.47517 3.31549,0.74458 5.01501,0.96307 4.14798,0.53669 8.51775,0.62154 12.38919,1.64401 1.69375,0.44759 2.39372,2.74709 3.82823,4.5608 0.21028,-0.0445 1.51229,-0.31183 2.8114,-0.577 1.07445,2.06827 2.06536,3.9732 2.68755,5.17386 2.22089,0.98853 3.72453,1.65674 5.22529,2.32494 -1.29912,0.98853 -2.32171,2.42253 -3.94922,2.88073 -5.46437,1.53794 -11.17936,2.66224 -16.73303,4.06229 -8.39677,2.11706 -11.38964,3.77592 -11.49046,7.86367 0.0662,1.54855 3.07641,5.07627 9.50289,4.9893 0.12674,-0.008 0.2506,-0.017 0.37734,-0.0233 6.25365,-0.39032 10.7012,-2.52435 13.7949,-6.21541 2.54351,-3.0377 5.20225,-6.04571 8.20089,-8.86916 0.98514,-0.92489 3.84551,-2.00887 4.69815,-1.66098 1.75137,0.71064 2.61553,2.40131 4.04428,3.57439 1.34521,1.10308 2.90934,2.08524 4.45907,3.06104 0.44936,0.28213 1.2876,0.26941 1.74272,0.5473 0.56747,0.34789 1.44315,1.00549 1.2876,1.2749 -2.21801,3.81197 7.92148,6.61209 2.16328,10.55559 -1.18966,0.81458 -3.25212,1.42127 -4.93435,1.42764 -4.58006,0.0191 -9.17451,-0.33729 -14.3422,0.16122 2.08551,0.74882 4.14798,1.52733 6.25653,2.24221 3.02168,1.02247 6.34294,1.73523 9.042,3.05892 3.58915,1.75644 3.37311,4.22139 0.21605,6.13904 -1.27032,0.77004 -2.32748,1.73099 -3.30974,2.68981 -2.39373,2.3398 -4.28048,5.01476 -7.20422,6.96848 -1.28184,0.85488 -4.6031,0.27577 -7.58158,0.36486 -0.0288,0.15061 -0.20452,1.07762 -0.37735,2.00039 -3.17147,-0.24607 -6.08945,-0.47305 -7.92724,-0.61518 -2.21225,0.94398 -3.70437,1.58037 -5.19649,2.21676 -0.77774,-1.24308 -1.82337,-2.53071 -2.20072,-3.725 -2.01638,-6.36391 -2.2497,-6.87302 -4.74425,-10.20346 -1.44315,-1.92827 -9.55762,-5.74237 -11.15632,1.24096 -0.003,0.0127 -0.006,0.0233 -0.009,0.0361 m -141.51503,84.94326 c -0.16419,0.89519 -0.10082,1.9516 0.0979,2.78315 0.50121,2.10008 2.22953,3.27529 3.41919,5.61508 0.39464,0.78064 0.10947,2.37586 -0.53001,2.56253 -1.30777,0.38184 -3.07354,-0.006 -4.63767,0.0509 -1.46907,0.0531 -2.92951,0.24395 -4.37841,0.43274 -0.41768,0.0552 -0.74895,0.39032 -1.1695,0.44972 -0.5185,0.0721 -1.42875,0.13364 -1.59006,-0.0424 -2.2785,-2.51374 -8.75683,0.26516 -9.70165,-3.69531 -0.19588,-0.8167 0.13827,-1.88795 0.81807,-2.55192 1.85507,-1.80735 4.02699,-3.46197 5.71787,-5.70418 -1.47772,0.49426 -2.96983,0.97156 -4.42739,1.4934 -2.0855,0.74669 -4.03563,1.7437 -6.245,2.23585 -2.93239,0.65336 -4.90267,-0.49215 -5.21665,-2.55829 -0.12675,-0.82943 -0.49834,-1.66098 -0.89873,-2.45859 -0.97938,-1.94736 -2.44557,-3.84168 -2.88342,-5.83146 -0.19299,-0.87185 1.64767,-1.92614 2.78836,-3.13528 -0.11233,-0.0743 -0.81807,-0.54305 -1.51804,-1.00974 1.50076,-1.13914 2.88054,-2.18918 3.75046,-2.85103 0.11234,-1.27278 0.19012,-2.13403 0.26789,-2.99528 1.35385,0.23123 3.0188,0.19516 4.0097,0.73822 2.49455,1.37248 4.4562,2.82557 7.23304,3.46832 9.36174,2.16585 8.44285,-5.79539 4.49363,-6.28753 -3.60643,-0.4476 -7.29928,-0.54942 -10.88843,-1.05641 -1.17526,-0.16758 -3.08793,-1.11793 -3.03032,-1.59522 0.1181,-0.9758 1.43162,-1.84341 2.0855,-2.81284 0.61068,-0.91004 1.04276,-1.88584 1.47196,-2.84891 0.12387,-0.28001 -0.15266,-0.647 -0.0317,-0.92701 0.14691,-0.35001 0.48969,-0.92701 0.78927,-0.93549 4.27184,-0.12092 3.71877,-5.40084 9.22348,-3.99866 1.13493,0.29062 2.35052,1.02247 2.8863,1.76493 1.45179,2.01523 2.56079,4.1429 4.64631,6.27693 0.0518,-1.1349 0.1325,-2.2698 0.14114,-3.40469 0.0115,-1.62704 -0.36007,-3.29862 0.0346,-4.87051 0.52138,-2.08948 2.9007,-2.70466 5.68906,-1.86674 1.12053,0.33728 2.3534,0.5282 3.56035,0.68518 2.94678,0.37971 6.04625,0.43911 8.79715,1.16671 1.20407,0.3182 1.69952,1.94948 2.71635,3.23711 0.14979,-0.0297 1.07444,-0.22062 1.99621,-0.40941 0.76335,1.46794 1.4662,2.82133 1.9098,3.67197 1.57565,0.70215 2.64145,1.17732 3.70725,1.65249 -0.92177,0.70003 -1.64767,1.71826 -2.80276,2.04494 -3.87721,1.09035 -7.93588,1.89008 -11.87934,2.88497 -5.96271,1.50188 -8.08566,2.6792 -8.15768,5.58114 0.0461,1.09883 2.18345,3.60409 6.74622,3.54257 0.0893,-0.006 0.1786,-0.0106 0.26789,-0.017 4.44179,-0.27577 7.59886,-1.7925 9.79383,-4.4123 1.80609,-2.15737 3.69284,-4.2914 5.82156,-6.29603 0.69997,-0.6576 2.73075,-1.42763 3.33854,-1.17944 1.24152,0.50487 1.85507,1.70553 2.86902,2.53708 0.95346,0.78276 2.06534,1.48066 3.16571,2.17433 0.31686,0.1994 0.91313,0.19092 1.23863,0.3882 0.40039,0.24607 1.02259,0.71276 0.91313,0.90367 -1.57565,2.70678 5.62281,4.69444 1.53533,7.49456 -0.844,0.57699 -2.30732,1.00974 -3.50274,1.01398 -3.25212,0.0127 -6.51577,-0.23971 -10.1827,0.11455 1.4806,0.53245 2.9468,1.08399 4.44179,1.59098 2.14312,0.72548 4.50228,1.23247 6.42072,2.17221 2.5464,1.24732 2.39373,2.99528 0.15267,4.35927 -0.90161,0.5473 -1.65343,1.22824 -2.35052,1.90917 -1.69951,1.66098 -3.03897,3.55955 -5.11584,4.94688 -0.90736,0.60669 -3.26652,0.19516 -5.38084,0.2588 -0.0201,0.10606 -0.14402,0.76579 -0.26788,1.42127 -2.25259,-0.17607 -4.32369,-0.33517 -5.62857,-0.43699 -1.5699,0.66821 -2.62994,1.12217 -3.68997,1.57401 -0.55018,-0.88246 -1.29337,-1.79887 -1.56126,-2.64526 -1.43162,-4.51626 -1.59581,-4.879 -3.36734,-7.24425 -1.02547,-1.36824 -6.78655,-4.07714 -7.92148,0.88034 -0.003,0.008 -0.003,0.017 -0.006,0.0255 M 487.88375,246.85034 c -0.12962,0.70639 -0.0806,1.53794 0.0778,2.19343 0.39464,1.65461 1.75425,2.58162 2.69331,4.42715 0.31109,0.61518 0.0864,1.87099 -0.41768,2.01948 -1.03124,0.29911 -2.42254,-0.006 -3.6554,0.0382 -1.15798,0.0424 -2.31019,0.19304 -3.45089,0.34365 -0.33126,0.0424 -0.59051,0.30759 -0.92177,0.35214 -0.40904,0.0594 -1.12629,0.10606 -1.25304,-0.0318 -1.79745,-1.98129 -6.90464,0.21001 -7.6507,-2.91255 -0.15267,-0.64487 0.10946,-1.48915 0.64812,-2.01311 1.46043,-1.42552 3.17435,-2.728 4.50516,-4.49504 -1.16374,0.39032 -2.33899,0.76579 -3.48833,1.17733 -1.64478,0.5876 -3.18299,1.3746 -4.92284,1.7628 -2.31019,0.51335 -3.86568,-0.39032 -4.1134,-2.01736 -0.10082,-0.65549 -0.39176,-1.30884 -0.70862,-1.93675 -0.77198,-1.53582 -1.92708,-3.02922 -2.27274,-4.59686 -0.14978,-0.6873 1.29912,-1.51885 2.20073,-2.47132 -0.0922,-0.0615 -0.64524,-0.43062 -1.1983,-0.79761 1.18102,-0.89943 2.26986,-1.72461 2.95543,-2.24645 0.0893,-1.00338 0.14978,-1.68219 0.21027,-2.36101 1.06868,0.18031 2.37933,0.15273 3.16284,0.58123 1.96452,1.08187 3.51137,2.22737 5.70058,2.73436 7.37994,1.70765 6.65404,-4.56928 3.54306,-4.95536 -2.84309,-0.35426 -5.75243,-0.43486 -8.584,-0.83579 -0.92753,-0.13152 -2.43405,-0.87822 -2.38796,-1.25369 0.0922,-0.77003 1.12917,-1.45521 1.6419,-2.21888 0.48393,-0.71912 0.82384,-1.48703 1.16373,-2.24645 0.0951,-0.22062 -0.12098,-0.50912 -0.0288,-0.72973 0.11811,-0.27578 0.38888,-0.73185 0.62508,-0.73822 3.36734,-0.0955 2.9295,-4.25745 7.27047,-3.15225 0.89297,0.2291 1.85219,0.80821 2.27275,1.39157 1.14645,1.58885 2.01926,3.26468 3.66404,4.94688 0.0403,-0.89307 0.10658,-1.78826 0.11234,-2.68345 0.009,-1.28126 -0.28517,-2.59859 0.026,-3.83955 0.41192,-1.64613 2.28715,-2.12979 4.485,-1.47006 0.88432,0.26728 1.85507,0.41577 2.80564,0.53881 2.3246,0.30122 4.76729,0.34789 6.93633,0.92064 0.9477,0.25032 1.33946,1.53794 2.14025,2.55193 0.11809,-0.0255 0.84687,-0.17395 1.57277,-0.32244 0.60203,1.1561 1.1551,2.22312 1.50652,2.89557 1.24151,0.55366 2.08263,0.92701 2.92374,1.30036 -0.72877,0.55366 -1.29912,1.35551 -2.21225,1.61219 -3.05625,0.86125 -6.25365,1.49127 -9.36174,2.27403 -4.70104,1.18369 -6.37463,2.11282 -6.43224,4.39958 0.0375,0.86762 1.72256,2.84255 5.32035,2.79164 0.0691,-0.004 0.13827,-0.008 0.21028,-0.0127 3.49985,-0.21637 5.98864,-1.41067 7.71984,-3.47893 1.42298,-1.69917 2.91222,-3.38136 4.58869,-4.96173 0.55018,-0.51759 2.15177,-1.12429 2.62994,-0.93125 0.97938,0.3988 1.46331,1.34491 2.2641,2.00251 0.75182,0.6173 1.6275,1.16671 2.49454,1.71189 0.2506,0.1591 0.72013,0.15061 0.9765,0.30759 0.31398,0.19304 0.80655,0.56214 0.71726,0.71276 -1.23863,2.1319 4.43314,3.69955 1.2127,5.90782 -0.6654,0.45396 -1.8205,0.79549 -2.76244,0.79761 -2.56367,0.0106 -5.13599,-0.18668 -8.02517,0.0912 1.16662,0.42002 2.32172,0.85489 3.49985,1.25369 1.69088,0.57275 3.54882,0.97156 5.06111,1.71189 2.00773,0.98429 1.88675,2.36313 0.12098,3.43651 -0.7115,0.43062 -1.30201,0.96731 -1.85219,1.504 -1.33945,1.31097 -2.3966,2.80648 -4.03275,3.90108 -0.71725,0.47941 -2.5752,0.15273 -4.24303,0.20364 -0.0144,0.0848 -0.11234,0.60245 -0.21028,1.12005 -1.77441,-0.13789 -3.40768,-0.26516 -4.43603,-0.34365 -1.23863,0.52608 -2.07398,0.88246 -2.90934,1.24096 -0.43495,-0.69579 -1.0197,-1.41915 -1.22999,-2.08524 -1.12917,-3.56166 -1.25879,-3.84592 -2.65585,-5.71055 -0.80655,-1.07974 -5.34916,-3.21376 -6.24213,0.69367 -0.003,0.006 -0.003,0.0127 -0.006,0.0191 m -85.41944,-3.91592 c -0.16131,0.89094 -0.10081,1.94311 0.0979,2.77254 0.49833,2.09373 2.2209,3.26256 3.40479,5.59599 0.39752,0.7764 0.10946,2.36737 -0.52713,2.55193 -1.302,0.37971 -3.06201,-0.006 -4.62038,0.0509 -1.46332,0.0531 -2.92087,0.24395 -4.36114,0.43275 -0.41767,0.053 -0.74894,0.38819 -1.16662,0.44759 -0.51849,0.0721 -1.42298,0.13364 -1.58141,-0.0424 -2.27274,-2.50526 -8.72803,0.26516 -9.66996,-3.68258 -0.19588,-0.81458 0.13826,-1.88159 0.81519,-2.54344 1.8493,-1.80098 4.01258,-3.44923 5.6977,-5.68508 -1.47195,0.49638 -2.95831,0.96943 -4.4101,1.48915 -2.07975,0.74458 -4.02411,1.73734 -6.22484,2.22737 -2.92086,0.65124 -4.88539,-0.49003 -5.19937,-2.54769 -0.12674,-0.82731 -0.49257,-1.65461 -0.89296,-2.4501 -0.97651,-1.94099 -2.43694,-3.82683 -2.87478,-5.81025 -0.19012,-0.8676 1.6419,-1.91977 2.77971,-3.12255 -0.11522,-0.0764 -0.81519,-0.54305 -1.51228,-1.00761 1.49212,-1.13702 2.86901,-2.1807 3.73606,-2.84043 0.11234,-1.27066 0.19012,-2.12766 0.26501,-2.98467 1.35097,0.2291 3.00728,0.19304 3.99819,0.73609 2.4859,1.364 4.4389,2.81285 7.20422,3.45348 9.33006,2.15948 8.41404,-5.77418 4.48211,-6.2642 -3.59778,-0.4476 -7.27624,-0.5473 -10.85098,-1.05429 -1.17238,-0.16546 -3.07929,-1.11156 -3.02168,-1.58673 0.1181,-0.97368 1.42874,-1.83917 2.07687,-2.80436 0.61067,-0.90792 1.04275,-1.87735 1.46907,-2.83831 0.12386,-0.27788 -0.15267,-0.64275 -0.0317,-0.92488 0.14691,-0.3479 0.48681,-0.92277 0.78638,-0.93125 4.25744,-0.12092 3.70438,-5.38174 9.1918,-3.9838 1.12917,0.28849 2.34188,1.02034 2.87477,1.75855 1.44892,2.00675 2.55216,4.12805 4.63191,6.2536 0.049,-1.13066 0.12963,-2.26131 0.13826,-3.39408 0.0144,-1.62068 -0.35718,-3.28378 0.0346,-4.85142 0.52137,-2.08099 2.89205,-2.69405 5.67178,-1.85826 1.11476,0.33517 2.34187,0.52609 3.54593,0.68094 2.93527,0.37759 6.02608,0.43911 8.76548,1.16247 1.1983,0.31608 1.69375,1.94311 2.7077,3.2265 0.14979,-0.0318 1.07156,-0.22062 1.98758,-0.40941 0.76046,1.4637 1.46043,2.81073 1.90403,3.66136 1.56989,0.70004 2.63281,1.17309 3.69573,1.64402 -0.92177,0.70002 -1.64191,1.71401 -2.79413,2.03856 -3.86567,1.08823 -7.90707,1.88372 -11.83612,2.87437 -5.94255,1.49764 -8.05686,2.67072 -8.13175,5.56205 0.049,1.09459 2.17768,3.59136 6.72605,3.52984 0.0864,-0.006 0.17571,-0.0127 0.26501,-0.0169 4.4245,-0.27577 7.57005,-1.78613 9.75926,-4.39746 1.79745,-2.14675 3.67844,-4.27654 5.8014,-6.27268 0.69421,-0.65549 2.71923,-1.42127 3.32414,-1.1752 1.23863,0.50063 1.84931,1.69916 2.86037,2.52859 0.95058,0.77851 2.0567,1.4743 3.15419,2.16584 0.31686,0.19941 0.91025,0.1888 1.23287,0.38608 0.4004,0.24607 1.01971,0.71276 0.91025,0.90156 -1.56989,2.69617 5.60553,4.67747 1.52956,7.46698 -0.84111,0.57699 -2.29867,1.00549 -3.4912,1.01186 -3.23773,0.0127 -6.48985,-0.23971 -10.14238,0.11243 1.47195,0.53032 2.93239,1.08186 4.42451,1.58673 2.13447,0.72336 4.48499,1.22823 6.39767,2.16373 2.53775,1.24308 2.38509,2.98679 0.14979,4.3423 -0.89585,0.54517 -1.64479,1.22399 -2.339,1.90281 -1.69375,1.65673 -3.03032,3.54893 -5.09855,4.93202 -0.90448,0.60457 -3.255,0.19304 -5.36068,0.25668 -0.0201,0.10606 -0.14402,0.76155 -0.26789,1.4149 -2.24393,-0.17394 -4.30928,-0.33304 -5.6084,-0.43486 -1.56414,0.66821 -2.62129,1.11793 -3.67845,1.56764 -0.5473,-0.87822 -1.2876,-1.79038 -1.55549,-2.63466 -1.42586,-4.50139 -1.59006,-4.86202 -3.35582,-7.21878 -1.01971,-1.364 -6.76063,-4.0623 -7.89268,0.87822 -0.003,0.008 -0.003,0.0169 -0.006,0.0255 m 162.30414,50.70539 c 5.35203,2.34403 10.59749,2.27403 15.96394,1.59309 1.50652,-0.19303 1.61021,-0.84003 0.38022,-1.34914 -2.04518,-0.84216 -4.1278,-1.65886 -6.27956,-2.40344 -0.58764,-0.20576 -1.59294,-0.28849 -2.20361,-0.1294 -2.47727,0.64488 -4.87676,1.40643 -7.86099,2.28889 z m 0,0 m 17.53382,15.17579 c -0.0633,1.36611 -1.47771,2.99739 1.16086,4.0835 1.36826,0.56427 2.35628,0.57487 3.37887,-0.27577 1.72256,-1.42976 3.45089,-2.85739 5.17057,-4.28927 0.93329,-0.7764 0.73165,-1.38945 -0.58763,-1.78614 -0.92466,-0.27789 -1.87811,-0.51547 -2.82005,-0.77215 -5.99727,-1.25793 -6.10098,-1.25793 -6.30262,3.03983 z m 0,0 m -26.27049,-19.16596 c -0.52714,0.3585 -0.83247,0.47517 -1.16086,0.80185 -2.08839,2.07039 -4.17966,4.18745 -6.27092,6.28754 0.85839,-3.43227 0.98802,-6.71816 2.75667,-10.33922 2.31307,-4.73263 5.92238,-9.73253 8.97575,-14.61789 0.83248,1.94311 2.04806,3.41954 2.39949,5.946 0.43784,3.17135 1.33081,6.39997 -4.57717,14.64547 -0.82096,-1.05217 -1.50077,-1.92402 -2.12296,-2.72375 z m 0,0 m 5.50758,37.76977 c -0.68844,-0.18456 -1.04563,-0.21001 -1.52092,-0.42214 -3.00728,-1.34279 -6.04048,-2.72588 -9.06505,-4.09624 2.35628,2.9571 3.90889,5.97995 7.2676,8.85644 4.38994,3.75894 10.20574,7.40546 15.40799,11.09864 0,-2.04281 0.58763,-3.75894 -0.15267,-6.20904 -0.93042,-3.07801 -1.42875,-6.33421 -10.97196,-12.36083 -0.37448,1.21127 -0.68269,2.21464 -0.96499,3.13317 z m 0,0 m 13.31385,-56.92936 c 1.18678,-2.60284 2.21801,-5.28204 3.28093,-7.94428 0.70285,-1.76704 -2.74515,-6.96635 -5.0611,-7.6494 -0.34279,-0.0997 -0.74895,-0.0933 -1.06868,-0.0255 -2.34764,0.4879 -4.83643,3.76955 -4.37266,6.0648 0.90737,4.49291 1.96452,8.99007 2.98136,13.48511 0.0691,0.29698 0.32838,0.59608 0.49833,0.89306 0.30533,0.12516 0.61068,0.25032 0.91601,0.37759 0.95058,-1.73098 2.00773,-3.40892 2.82581,-5.20142 z m 0,0 m 110.99297,81.55541 c 2.46287,3.48742 4.90268,6.9812 7.63343,10.37741 0.9765,1.2155 3.16859,2.1022 5.11007,2.90618 7.36554,3.04831 11.7814,7.10424 12.1213,12.90387 -1.47195,0.29274 -2.31883,0.58548 -3.12538,0.60669 -23.42453,0.59609 -46.99308,2.7386 -69.78389,-0.49214 -9.26957,-1.3152 -18.11282,-2.19342 -27.59266,-4.60322 -2.55504,-0.42002 -4.93148,-1.68856 -7.23015,-2.5795 -3.09946,-1.20066 -8.54079,0.2991 -12.39783,-2.05342 1.79169,-0.21213 3.24637,-0.3882 4.53396,-0.54093 0.39751,-1.38946 0.4148,-1.44673 0.81231,-2.83618 -5.04382,-1.98342 -10.03003,-4.06017 -15.41375,-5.50266 -2.56367,-0.68518 -6.4524,0.74246 -9.73621,1.20702 -0.009,0.29698 -0.0144,0.59184 -0.0202,0.88883 -6.67421,-2.27616 -14.27018,-2.54981 -20.08887,-6.84332 -9.30701,-6.83271 -18.11282,-21.40393 -22.07067,-29.30365 -4.58294,-9.14918 -9.01032,-13.34511 -12.68013,-15.88643 -1.49499,-1.03731 -0.15843,-2.20827 0.73166,-4.20866 1.69376,-2.02584 5.17921,-3.47681 6.93057,-5.6066 1.33369,-1.62704 2.17481,-4.48443 3.64388,-6.86665 1.42587,1.93887 0.64525,3.45136 1.53245,4.65626 0.64524,0.087 1.29336,0.17182 1.94148,0.25879 2.53199,-3.24771 5.72362,-6.3639 7.27048,-9.80889 0.60491,-1.34915 -2.47727,-3.43439 -3.88009,-5.18446 -0.48393,-0.006 -0.96498,-0.0148 -1.44603,-0.0233 2.40813,-3.55742 4.08748,-7.55608 6.26229,-11.17077 0.79502,-1.3237 1.49788,-2.38859 2.05094,-3.05255 2.59248,-0.24184 3.01016,-1.364 4.69528,-4.65202 2.12007,-4.13866 5.14752,-8.17974 8.12599,-12.81266 5.02366,4.79839 5.23106,-13.61663 3.24061,-17.84863 -5.58537,-11.8708 8.96134,-7.30788 15.22939,-2.74284 3.95498,2.88073 8.12888,5.18446 12.85296,8.12034 1.27032,0.787 4.22863,-0.54941 5.84173,-0.79973 11.574,-1.79886 22.9694,-2.53708 34.28991,-0.97368 5.6977,0.78701 9.92633,2.29525 12.77518,4.61808 3.68133,4.47806 5.45862,7.69396 4.56565,12.54537 l 1.44603,-0.31183 c 2.12872,1.77341 6.06641,3.5553 6.03473,5.32234 -0.0835,4.50989 -1.93572,9.01341 -3.0793,13.51906 -0.6798,0.0488 -1.35673,0.0976 -2.03654,0.14636 -1.38553,-1.24095 -2.77107,-2.47979 -5.00061,-4.47806 0.8296,3.23074 -1.23575,4.83657 -1.87523,7.10636 -0.83535,2.97619 -2.91222,5.089 -6.27381,8.05458 -5.95407,4.3317 -13.46363,7.7576 -22.60069,10.1674 -2.33899,0.61729 -4.48211,1.56976 -8.584,3.03558 4.32369,0.74882 6.72605,1.47218 9.33294,1.56764 15.74501,0.57063 24.21091,7.10848 34.54052,12.36506 10.07611,5.12719 16.59477,11.37018 20.90693,18.84352 m 0,0.002 c 1.2588,2.17858 5.33476,3.61894 9.02185,5.97358 -4.15662,-0.71912 -6.74046,-1.16459 -9.32142,-1.61219 -0.86992,0.61518 -1.02259,0.72125 -1.89251,1.3343 2.52334,4.17684 4.38129,8.61036 8.07414,12.33113 1.48636,1.49551 7.32232,1.30247 11.17649,1.87735 l 1.31064,-0.88034 c 0.70285,0.97792 1.39994,1.96008 2.09415,2.94224 M 577.57216,308.46353 c -3.96074,-1.41915 -7.44619,-2.53495 -10.66951,-3.91168 -0.80943,-0.34577 -1.00531,-1.52521 -1.00243,-2.3207 0,-0.21001 1.80322,-0.6173 2.76243,-0.59397 7.2532,0.17819 8.92967,1.34915 8.90951,6.82635 z m 0,0 m 0,0 c -3.96074,-1.41915 -7.44619,-2.53495 -10.66951,-3.91168 -0.80943,-0.34577 -1.00531,-1.52521 -1.00243,-2.3207 0,-0.21001 1.80322,-0.6173 2.76243,-0.59397 7.2532,0.17819 8.92967,1.34915 8.90951,6.82635 m -32.75171,3.98168 c 3.36447,-1.82432 6.67133,-3.93289 10.35841,-5.49204 1.98469,-0.84004 4.07596,0.52396 4.19694,2.65586 0.19012,3.39621 0.0576,6.77968 -0.29669,10.08679 -0.2362,2.20403 -3.32414,1.90281 -6.0088,-0.41365 -2.39084,-2.06191 -4.87099,-4.0432 -8.24986,-6.83696 z m 0,0 m 0,0 c 3.36447,-1.82432 6.67133,-3.93289 10.35841,-5.49204 1.98469,-0.84004 4.07596,0.52396 4.19694,2.65586 0.19012,3.39621 0.0576,6.77968 -0.29669,10.08679 -0.2362,2.20403 -3.32414,1.90281 -6.0088,-0.41365 -2.39084,-2.06191 -4.87099,-4.0432 -8.24986,-6.83696 m 55.77872,-48.87053 c 0.39463,0.12304 0.78638,0.24819 1.17814,0.37123 2.47726,-1.31096 5.06686,-2.55193 7.36841,-3.97532 0.72878,-0.44972 0.68845,-1.38945 0.99955,-2.10645 -1.71392,-0.0933 -4.54549,-0.60246 -4.94877,-0.21001 -1.89827,1.83704 -3.12826,3.9244 -4.59733,5.92055 z m 0,0 m -17.63753,28.22179 c 8.40253,1.02671 14.73971,-0.85064 20.73987,-3.515 1.68511,-0.74882 1.29048,-1.574 -0.61644,-1.77341 -3.16859,-0.3288 -6.3631,-0.61305 -9.58067,-0.78488 -0.88144,-0.0488 -2.17192,0.19304 -2.78836,0.59609 -2.50606,1.6334 -4.82201,3.37923 -7.7544,5.4772 z m 0,0 m 11.53367,-28.97273 c 1.54397,-2.33768 3.13979,-4.68171 4.55989,-7.05757 0.0979,-0.16122 -1.05139,-0.7573 -1.75136,-0.83367 -9.1774,-0.98004 -13.39451,1.2346 -13.52989,7.05332 -0.009,0.39245 -0.19011,0.88459 0.0979,1.15187 0.46377,0.43487 1.302,1.07338 1.90116,1.00974 2.73074,-0.29274 5.43269,-0.80185 8.72226,-1.32369 z m 0,0 m 0.82096,19.50536 c 7.78033,2.93588 13.34552,1.81796 16.96348,-3.24135 0.84687,-1.18792 1.53532,-2.41616 2.16328,-3.64651 0.24485,-0.48154 0.45225,-1.23884 0.0634,-1.47218 -0.42344,-0.25456 -1.63615,-0.20365 -2.36492,-0.017 -6.7635,1.72462 -12.3575,4.43776 -16.82521,8.37702 z m 0,0 m 17.13919,-20.53419 c -3.2262,1.74371 -5.54504,2.94861 -7.78033,4.21502 -3.29821,1.86462 -4.78457,5.54084 -3.08218,7.78942 0.2823,0.37123 1.51517,0.8167 1.92996,0.68518 4.01547,-1.27702 7.95604,-2.66435 11.89374,-4.04744 0.26789,-0.0955 0.50698,-0.43063 0.50122,-0.63639 -0.0634,-2.31434 0.0432,-4.65626 -0.43784,-6.91545 -0.11235,-0.54517 -2.21226,-0.81669 -3.02457,-1.09034 z m 0,0 m -36.91408,25.30712 c 0.40039,0.07 0.80079,0.14001 1.20119,0.21001 0.43495,-0.1591 0.95633,-0.26516 1.29335,-0.48366 5.14464,-3.29226 10.32385,-6.56754 15.3619,-9.92133 2.57521,-1.71613 3.33855,-6.0054 1.62175,-7.79577 -0.2362,-0.24395 -0.60203,-0.48579 -1.01395,-0.60033 -2.7826,-0.75943 -10.8337,1.72462 -11.83324,3.66561 -1.50652,2.92102 -3.05049,5.83782 -4.38706,8.78218 -0.9189,2.02584 -1.50652,4.09411 -2.24394,6.14329 z m 0,0 m 60.92336,68.82137 c 4.76152,5.75721 10.41025,5.25871 15.43679,5.14416 4.00683,-0.0891 7.54413,-1.01186 11.28882,-1.5634 -3.34718,-3.0271 -6.20179,-6.5421 -10.20862,-8.92007 -3.06201,-1.82008 -7.58157,-2.20404 -11.45589,-3.2265 0.52138,1.97069 1.0658,3.9435 1.54684,5.9057 0.0749,0.31183 -0.11522,0.58124 -0.23044,1.06489 -1.87235,0.46881 -3.91465,0.98004 -6.3775,1.59522 z m 0,0 m -21.33902,-38.56737 c -0.69997,-0.75307 -1.36826,-1.5231 -2.10567,-2.26131 -1.05717,-1.05004 -2.29003,-1.11581 -3.60356,-0.18668 -2.41676,1.70765 -4.82201,3.42378 -7.23591,5.1378 -1.43163,1.0161 -1.20118,1.85613 0.18724,2.91891 2.68178,2.05342 5.55079,0.5685 8.19513,0.27577 8.31899,-0.92065 8.29882,-1.0055 4.56277,-5.88449 z m 0,0 m -20.65633,-8.06943 c -2.19785,0.92064 -4.13933,5.99479 -2.88918,7.54546 1.77153,2.19767 4.70103,2.4692 7.21286,0.67458 2.15177,-1.53795 4.50228,-2.97619 6.38039,-4.64353 0.70861,-0.63215 0.9621,-2.07675 0.3399,-2.64102 -1.65918,-1.504 -8.68194,-1.92826 -11.04397,-0.93549 z m 0,0 m 39.01111,36.97852 c 0.52714,-0.64488 1.44027,-1.27278 1.50364,-1.93675 0.20164,-2.05342 -3.7735,-5.5175 -6.8528,-5.97571 -6.33718,-0.93761 -12.70317,-1.7925 -19.08356,-2.60707 -0.80366,-0.10183 -2.11719,0.0403 -2.54927,0.40092 -1.68799,1.40642 -0.844,4.8493 1.495,5.77206 4.07884,1.60795 8.2873,3.08225 12.49289,4.55019 4.26031,1.48916 8.48317,1.37461 12.9941,-0.20364 z m 0,0 m -53.99855,-2.15737 c 0.28805,0.0382 0.57611,0.0764 0.86416,0.11455 0.844,0.50487 1.6275,1.06914 2.54064,1.50613 12.70604,6.06692 26.82644,9.26372 41.79371,10.71469 0.65964,0.0636 1.54684,0.28638 1.92995,0.0912 0.58475,-0.29911 1.3337,-1.15187 1.13206,-1.32794 -1.54973,-1.36187 -3.00152,-2.97618 -5.06686,-3.83531 -6.21909,-2.58799 -12.86449,-4.68383 -19.04036,-7.31637 -7.0746,-3.01225 -13.79489,-6.42754 -20.76291,-9.56707 -0.7691,-0.34577 -3.13114,-0.0933 -3.1369,-0.0106 -0.20164,3.20316 -0.21604,6.41693 -0.25349,9.6307 z m 0,0 m 17.36388,-16.23007 c -1.37978,-2.42677 -2.2353,-4.32958 -4.62902,-5.61296 -6.80959,-3.64864 -14.16936,-6.82423 -21.35054,-10.14194 -1.47772,-0.68518 -3.13691,-1.18157 -5.47878,-2.04918 1.47195,4.98294 2.64433,9.22342 4.04427,13.44056 0.21892,0.65549 1.32505,1.41491 2.28427,1.78826 7.83217,3.04831 15.70756,6.04147 23.61752,8.98583 1.85218,0.68942 2.06822,0.32032 3.1081,-0.79973 0.69709,-0.75306 -0.57035,-3.54257 -1.59582,-5.61084 z m 0,0 m 9.37039,1.28763 c 0.12098,1.76068 1.33944,2.73648 4.18829,3.02497 4.83931,0.49427 9.62388,1.23248 14.44014,1.82644 1.37978,0.17183 2.79988,0.20365 5.49318,0.3882 -1.9386,-3.03346 -3.43936,-5.50477 -5.08991,-7.93154 -1.03699,-1.5231 -2.93815,-2.02372 -5.45573,-1.68856 -3.72165,0.49214 -7.44619,0.98641 -11.19953,1.35127 -2.65297,0.25668 -2.54063,1.13278 -2.37644,3.02922 z m 0,0 m -125.55109,4.85778 c -7.01122,1.37248 -12.42375,-0.1994 -17.58856,-2.56253 -1.4489,-0.66397 -1.15797,-1.4934 0.43785,-1.77129 2.64433,-0.46032 5.31459,-0.8761 8.01077,-1.18793 0.73742,-0.0827 1.83202,0.0997 2.37068,0.46669 2.18057,1.49976 4.20558,3.11831 6.76926,5.05506 z m 0,0 m -25.8701,10.72742 c -0.6654,1.72886 -0.0461,4.11744 -3.42496,4.83657 -1.74848,0.37334 -2.79988,0.14424 -3.42784,-1.16884 -1.05428,-2.21464 -2.11432,-4.42504 -3.16571,-6.63967 -0.57034,-1.20278 -0.026,-1.91978 1.58141,-2.09585 1.12917,-0.12304 2.26699,-0.1888 3.40192,-0.28001 7.02563,-0.11455 7.13221,-0.0891 5.03518,5.3478 z m 0,0 m 36.04704,-14.42485 c 0.36583,0.577 0.62508,0.79973 0.7979,1.28975 1.09461,3.10347 2.17481,6.26845 3.25789,9.41222 0.93618,-4.51413 2.56656,-8.66128 2.63858,-13.63361 0.0979,-6.49754 -1.03699,-13.64633 -1.64191,-20.5151 -1.9242,2.23161 -4.00683,3.78652 -5.73227,6.86877 -2.16904,3.86713 -4.85082,7.69608 -3.0332,19.47567 1.4345,-1.12005 2.62417,-2.04706 3.71301,-2.8977 z m 0,0 m -26.13511,46.00042 c 0.82671,-0.0636 1.21846,-0.006 1.8349,-0.15698 3.90601,-0.94822 7.86098,-1.94311 11.79868,-2.92528 -4.0846,3.13317 -7.35401,6.5421 -12.45256,9.32949 -6.66845,3.64227 -14.7858,6.79028 -22.27808,10.15254 1.10037,-2.56041 1.39706,-4.85778 3.49986,-7.74911 2.64145,-3.62742 4.91707,-7.59001 18.25972,-12.81266 -0.25637,1.60795 -0.46952,2.94013 -0.66252,4.162 z m 0,0 m 19.87858,-74.5998 c 0.14403,-3.55318 0.48969,-7.16151 0.8008,-10.75924 0.20451,-2.38646 6.64827,-8.06094 9.46832,-8.35156 0.41768,-0.0424 0.84111,0.0658 1.14645,0.22698 2.2209,1.18368 3.09081,5.9057 1.36538,8.67188 -3.376,5.40931 -6.91329,10.78893 -10.40738,16.17492 -0.23045,0.35425 -0.66541,0.66609 -1.00531,0.99701 -0.39175,0.0827 -0.78351,0.16546 -1.17526,0.24819 -0.0749,-2.39919 -0.29093,-4.7602 -0.193,-7.20818 z m 0,0 m 34.19486,11.17289 c -0.13251,-1.85189 -0.30246,-3.36014 -0.5329,-4.32533 -2.61265,-0.93762 -2.45134,-2.44586 -2.46574,-6.97908 -0.0172,-5.70418 -1.0514,-11.51018 -1.71104,-18.04591 -7.89843,4.7899 1.78017,-18.34289 6.16435,-23.16249 12.29413,-13.51693 -5.55656,-11.34684 -14.64465,-7.15514 -5.73515,2.64526 -11.39253,4.51412 -17.97167,7.04059 -1.76865,0.67882 -4.17966,-1.72037 -5.75243,-2.42888 -11.28306,-5.08052 -22.94925,-8.78644 -35.77339,-9.59041 -6.45529,-0.40517 -11.73819,0.45396 -16.00427,2.67072 -6.30261,4.71353 -9.91481,8.3155 -11.57975,14.61152 l -1.35962,-0.74458 c -3.20891,1.70553 -8.33339,2.97831 -9.2494,5.19931 -2.33612,5.67448 -2.797,11.7711 -4.00971,17.69802 0.69421,0.22698 1.38554,0.45396 2.07687,0.68094 2.13159,-1.21551 4.26607,-2.43314 7.69967,-4.39109 -2.61265,3.84591 -1.29048,6.36178 -1.8349,9.36342 -0.71437,3.93501 0.34566,7.09151 2.31019,11.62897 3.97226,6.8815 10.08188,13.00994 18.4556,18.26016 2.146,1.3449 3.90025,3.06316 7.45483,5.90146 -4.97757,-0.11667 -7.90995,0.20364 -10.72136,-0.31395 -16.97212,-3.1268 -29.44772,3.00164 -43.20805,7.07029 -13.4233,3.96684 -23.67801,10.20134 -32.26202,18.51684 -2.50318,2.42677 -7.59021,3.23498 -12.76078,5.2884 4.78746,0.11243 7.76017,0.18456 10.73289,0.25456 0.59051,0.98216 0.69421,1.15187 1.28472,2.13403 -4.91708,4.61807 -9.26381,9.72404 -15.17467,13.48511 -2.37644,1.51249 -8.45149,-0.15486 -12.84144,-0.37335 -0.30533,-0.47517 -0.60779,-0.95034 -0.91313,-1.42551 -5.78411,4.8005 -11.41268,9.71556 -17.45605,14.3209 -1.68511,1.28551 -4.485,1.8625 -6.9709,2.39495 -9.43376,2.02372 -16.28943,6.02874 -19.76625,13.2157 1.39995,0.72761 2.13736,1.30036 2.97848,1.5231 24.47592,6.46572 48.27204,14.90426 74.13062,16.41675 10.51972,0.61517 20.35387,1.6737 31.68302,0.96731 2.92951,0.0955 6.12691,-0.91428 9.03913,-1.47006 3.92617,-0.74882 8.88069,2.46071 14.22409,0.45184 -1.77729,-0.70428 -3.2262,-1.27702 -4.50516,-1.78402 0.3255,-1.84129 0.33991,-1.91341 0.66541,-3.7547 6.40343,-1.25369 12.79822,-2.64102 19.27367,-3.13316 3.08217,-0.23546 6.42935,2.50313 9.65844,3.88835 -0.15267,0.37334 -0.30534,0.74669 -0.458,1.12004 8.28442,-1.22611 16.47667,0.28638 24.94257,-3.67409 13.52411,-6.2939 30.67771,-22.41155 39.1148,-31.34647 9.77078,-10.34983 16.71288,-14.52879 21.96122,-16.8198 2.14311,-0.93549 1.35673,-2.72799 1.49212,-5.45386 -0.70574,-2.95285 -3.61508,-5.62145 -4.32081,-8.71855 -0.53866,-2.36313 0.10658,-6.15177 -0.16995,-9.49706 -2.54927,2.08311 -2.53776,4.17047 -4.12205,5.46235 -0.73165,-0.0488 -1.46331,-0.0997 -2.19497,-0.15062 -0.93617,-4.68807 -2.63857,-9.3719 -2.42253,-14.06847 0.0835,-1.83916 4.46771,-3.69954 6.89601,-5.55144 0.51273,0.10819 1.02835,0.21637 1.54396,0.32244 -0.63948,-5.04658 -0.26788,-10.46862 -0.62507,-15.53005 z m 0,0 m -57.98233,33.95567 c 4.9574,-0.81034 9.24364,-1.35975 13.39738,-2.29949 1.04275,-0.23547 1.88387,-1.66734 2.31019,-2.66436 0.10946,-0.26304 -1.58141,-1.21338 -2.60401,-1.41702 -7.77457,-1.55068 -10.17982,-0.49002 -13.10356,6.38087 z m 0,0 m 0,0 c 4.9574,-0.81034 9.24364,-1.35975 13.39738,-2.29949 1.04275,-0.23547 1.88387,-1.66734 2.31019,-2.66436 0.10946,-0.26304 -1.58141,-1.21338 -2.60401,-1.41702 -7.77457,-1.55068 -10.17982,-0.49002 -13.10356,6.38087 m 29.66665,14.72395 c -2.58097,-3.10771 -4.94876,-6.55906 -8.01078,-9.41221 -1.65054,-1.54007 -4.59733,-0.33941 -5.87053,2.30373 -2.02789,4.20866 -3.70437,8.48308 -5.10719,12.71508 -0.93618,2.82133 2.49166,3.19892 6.58203,0.95034 3.63811,-2.00251 7.32809,-3.88198 12.40647,-6.55694 z m 0,0 m 0,0 c -2.58096,-3.10771 -4.94876,-6.55906 -8.01078,-9.41221 -1.65054,-1.54007 -4.59733,-0.33941 -5.87053,2.30373 -2.02789,4.20866 -3.70437,8.48308 -5.10719,12.71508 -0.93618,2.82133 2.49166,3.19892 6.58203,0.95034 3.63811,-2.00251 7.32809,-3.88198 12.40647,-6.55694 m -28.69591,-74.61252 c -0.48105,0.0594 -0.96498,0.11879 -1.44603,0.17819 -1.91844,-2.24858 -3.99243,-4.43564 -5.66313,-6.7818 -0.52715,-0.74034 0.0201,-1.90918 0.0778,-2.88285 1.86371,0.2991 5.13311,0.35213 5.35204,0.94397 1.01971,2.76618 1.1983,5.68085 1.67935,8.54249 z m 0,0 m 2.74803,38.89193 c -9.44528,-0.76367 -15.14586,-4.66474 -20.06294,-9.46949 -1.37977,-1.34914 -0.51849,-2.28676 1.60734,-2.07039 3.53154,0.36062 7.06308,0.78488 10.56293,1.35339 0.95922,0.15486 2.19497,0.77428 2.63281,1.42764 1.77153,2.66011 3.28382,5.41568 5.25986,8.75885 z m 0,0 m 3.20604,-38.33615 c -0.37735,-3.30711 -0.80943,-6.63331 -1.03411,-9.95951 -0.0144,-0.22698 1.5238,-0.69367 2.30443,-0.6173 10.24031,1.01186 13.5126,4.81747 10.52836,12.14445 -0.20164,0.49426 -0.27365,1.15399 -0.72302,1.42127 -0.72589,0.4285 -1.95588,1.02671 -2.55503,0.79973 -2.73363,-1.03519 -5.32035,-2.33131 -8.52063,-3.78864 z m 0,0 m -14.86069,23.49341 c -9.81111,1.78189 -15.10265,-0.97792 -16.21166,-8.20307 -0.25925,-1.69492 -0.32838,-3.40469 -0.32838,-5.09961 0,-0.66397 0.18723,-1.6631 0.72013,-1.86038 0.58475,-0.21638 1.84354,0.14425 2.51471,0.55578 6.23348,3.81198 10.69543,8.58066 13.3052,14.60728 z m 0,0 m -7.52108,-29.65579 c 2.86325,2.75557 4.93724,4.67535 6.90176,6.65876 2.89782,2.9274 3.14843,7.887 0.45801,10.50256 -0.4436,0.43275 -1.95012,0.80822 -2.3534,0.57275 -3.89736,-2.28676 -7.67087,-4.69868 -11.44437,-7.10848 -0.25637,-0.16334 -0.38887,-0.63426 -0.30822,-0.89731 0.93041,-2.96345 1.68223,-5.98843 3.04473,-8.814 0.32838,-0.68094 2.71347,-0.69367 3.70149,-0.91428 z m 0,0 m 31.81841,39.84864 c -0.46088,0.0106 -0.92465,0.0233 -1.38554,0.0361 -0.40328,-0.28425 -0.91601,-0.51972 -1.18966,-0.86337 -4.12205,-5.18233 -8.29307,-10.34346 -12.27685,-15.5852 -2.03654,-2.6792 -0.99955,-8.29428 1.62463,-10.24588 0.36006,-0.26728 0.86127,-0.50699 1.35384,-0.57275 3.33278,-0.43699 10.94028,4.27018 11.17937,6.93241 0.36007,4.0135 0.76622,8.02913 0.93041,12.03626 0.11523,2.75982 -0.14402,5.50902 -0.2362,8.26247 z m 0,0 m -106.49921,70.64357 c -6.50425,7.10848 -12.64556,6.00116 -18.18484,5.44538 -4.41298,-0.44335 -8.12887,-1.93039 -12.15586,-2.95285 4.35249,-3.66985 8.26426,-8.01428 13.20727,-10.78682 3.77926,-2.1213 8.86341,-2.25282 13.36569,-3.27105 -0.99955,2.52223 -2.02214,5.0487 -2.9756,7.56669 -0.14979,0.39668 0.003,0.76579 0.026,1.40218 1.97028,0.76154 4.12204,1.59309 6.71741,2.59647 z m 0,0 m 41.15999,-43.16636 c 1.14645,-0.77427 2.26698,-1.57612 3.44512,-2.3207 1.68223,-1.06065 3.02169,-0.84004 3.91177,0.64487 1.63903,2.73224 3.26653,5.47084 4.89692,8.2052 0.97073,1.62703 0.27365,2.6198 -1.76578,3.61469 -3.94345,1.91766 -6.18163,-0.64275 -8.82308,-1.65461 -8.31035,-3.18407 -8.24122,-3.2859 -1.66495,-8.48945 z m 0,0 m 27.11737,-5.6172 c 1.82914,1.6928 1.15798,8.52551 -0.99954,10.16527 -3.05626,2.32071 -6.30262,1.94523 -7.99925,-0.9164 -1.45179,-2.45222 -3.16283,-4.8302 -4.25456,-7.37789 -0.41192,-0.96519 0.0979,-2.8383 1.06004,-3.39408 2.56656,-1.47854 10.22591,-0.29698 12.19331,1.5231 z m 0,0 m -63.92199,39.33316 c -0.21028,-0.93549 -0.83824,-1.94735 -0.55018,-2.79587 0.89296,-2.61981 6.96225,-5.9948 10.46498,-5.81449 7.21287,0.36911 14.41421,0.85276 21.60404,1.38733 0.90737,0.0679 2.21801,0.56851 2.48302,1.12429 1.02835,2.17646 -1.71392,6.28542 -4.68376,6.8709 -5.18497,1.02034 -10.43042,1.84341 -15.67012,2.65799 -5.31459,0.82518 -9.72181,-0.35214 -13.64798,-3.43015 z m 0,0 m 61.73855,10.40498 c -0.3255,-0.0212 -0.65388,-0.0445 -0.97939,-0.0679 -1.16373,0.42851 -2.29578,0.94398 -3.49697,1.26642 -16.70999,4.50352 -33.3739,5.06567 -49.99748,3.23286 -0.73165,-0.0827 -1.79169,-0.0191 -2.09126,-0.35637 -0.46089,-0.51972 -0.79504,-1.76917 -0.48393,-1.94312 2.37067,-1.32793 4.77592,-2.9974 7.42313,-3.57015 7.97333,-1.72462 16.13677,-2.73223 24.08705,-4.52261 9.10827,-2.0513 18.05521,-4.6902 27.12026,-6.92393 1.00243,-0.24819 3.36447,0.64488 3.32702,0.75094 -1.5094,4.06441 -3.22332,8.09701 -4.90843,12.13384 z m 0,0 m -9.65268,-24.58375 c 2.76531,-2.70466 4.69239,-4.879 7.91571,-5.90359 9.16875,-2.91254 18.66588,-5.09536 28.05355,-7.50304 1.93284,-0.49638 3.95498,-0.717 6.89601,-1.23035 -4.23439,5.88661 -7.75441,10.91409 -11.50486,15.86097 -0.58188,0.76791 -2.16329,1.44884 -3.37887,1.68219 -9.92922,1.90917 -19.87283,3.74197 -29.82796,5.49841 -2.33324,0.41153 -2.36492,-0.10182 -2.86038,-1.75856 -0.33414,-1.1158 2.50894,-4.302 4.7068,-6.64603 z m 0,0 m -13.12085,-1.14339 c -1.07156,2.17646 -2.88341,3.10135 -6.05777,2.77042 -5.38948,-0.56214 -10.8481,-0.80397 -16.26639,-1.23459 -1.55261,-0.12516 -3.07065,-0.42851 -6.0232,-0.85489 3.6842,-3.33256 6.60219,-6.06056 9.65268,-8.70158 1.91556,-1.65673 4.19694,-1.82007 6.68284,-0.78488 3.67269,1.52734 7.35401,3.05468 11.1304,4.42716 2.66738,0.96943 2.07975,2.04069 0.88144,4.37836 z m 0,0 M 247.88894,337.2708 c -0.21604,1.18157 -0.12962,2.57526 0.12962,3.67197 0.66253,2.77254 2.94103,4.32109 4.51093,7.40971 0.52137,1.02883 0.14402,3.13528 -0.69997,3.38135 -1.72257,0.50275 -4.05292,-0.008 -6.11827,0.0658 -1.93859,0.07 -3.86856,0.32456 -5.77835,0.57275 -0.55019,0.0721 -0.98803,0.51548 -1.54109,0.59397 -0.68556,0.0955 -1.88675,0.17607 -2.09703,-0.0573 -3.01016,-3.31559 -11.5596,0.35214 -12.80686,-4.87475 -0.25637,-1.07762 0.18435,-2.49253 1.08308,-3.36862 2.44845,-2.38647 5.3117,-4.56717 7.54412,-7.5285 -1.94724,0.65548 -3.91753,1.28339 -5.83884,1.97069 -2.7538,0.9864 -5.33188,2.30161 -8.2441,2.95285 -3.86857,0.86125 -6.46969,-0.65124 -6.88737,-3.37711 -0.16419,-1.09459 -0.65388,-2.18919 -1.18102,-3.24347 -1.29336,-2.57102 -3.22908,-5.06779 -3.80807,-7.69608 -0.25348,-1.14763 2.17481,-2.5392 3.68133,-4.13442 -0.14979,-0.10182 -1.08021,-0.71912 -2.00198,-1.3343 1.97894,-1.504 3.79944,-2.88921 4.94588,-3.76106 0.1498,-1.6822 0.25349,-2.81709 0.35431,-3.95411 1.78881,0.30335 3.98379,0.25668 5.29155,0.9758 3.29245,1.80735 5.88206,3.72713 9.54322,4.57565 12.35462,2.85951 11.14192,-7.64729 5.93391,-8.29641 -4.76154,-0.59397 -9.6354,-0.72549 -14.36812,-1.39582 -1.55261,-0.22061 -4.07884,-1.4743 -4.00107,-2.10221 0.15555,-1.28975 1.88963,-2.43525 2.75091,-3.7144 0.80943,-1.20065 1.3769,-2.48616 1.94437,-3.75894 0.16418,-0.36911 -0.20164,-0.85277 -0.0461,-1.22399 0.19587,-0.46033 0.64812,-1.22187 1.04564,-1.23248 5.63432,-0.16122 4.90555,-7.12757 12.17026,-5.2778 1.49788,0.38184 3.10234,1.35127 3.80807,2.32919 1.91844,2.65799 3.37887,5.4666 6.13266,8.28156 0.0662,-1.49764 0.17571,-2.99315 0.18724,-4.49291 0.0144,-2.14676 -0.47529,-4.35079 0.0432,-6.42542 0.69133,-2.75557 3.82824,-3.57015 7.50956,-2.46283 1.47772,0.44547 3.10522,0.6979 4.69528,0.90367 3.88872,0.50063 7.98197,0.57911 11.60856,1.54006 1.58718,0.4179 2.24394,2.57102 3.58627,4.2723 0.19876,-0.0424 1.41723,-0.29274 2.63569,-0.54305 1.00531,1.93887 1.93284,3.72288 2.51759,4.8493 2.08263,0.92488 3.48833,1.55279 4.89403,2.17857 -1.21846,0.92489 -2.1748,2.26767 -3.6986,2.69618 -5.11872,1.44248 -10.47364,2.49677 -15.67589,3.80773 -7.86962,1.98342 -10.66951,3.53621 -10.76745,7.36728 0.0634,1.44885 2.88343,4.75596 8.90663,4.67323 0.11522,-0.008 0.23332,-0.0149 0.35142,-0.0212 5.85901,-0.36486 10.02715,-2.36525 12.92209,-5.82509 2.3822,-2.84254 4.87675,-5.66175 7.68527,-8.30701 0.91889,-0.86762 3.60067,-1.8816 4.40146,-1.55704 1.63903,0.66609 2.44846,2.2507 3.78791,3.34954 1.25879,1.03307 2.72499,1.95371 4.17678,2.86799 0.42055,0.26517 1.20694,0.25032 1.63327,0.51336 0.53001,0.32456 1.35097,0.94186 1.20693,1.19217 -2.07974,3.57227 7.42027,6.19632 2.02503,9.88951 -1.11477,0.76366 -3.04473,1.33217 -4.62326,1.33854 -4.29201,0.017 -8.59553,-0.31608 -13.43483,0.15061 1.953,0.70215 3.88584,1.43188 5.86189,2.10009 2.82869,0.95883 5.93967,1.62704 8.47166,2.86588 3.3587,1.64613 3.15995,3.9541 0.19876,5.75084 -1.18679,0.72337 -2.18057,1.6228 -3.09946,2.52011 -2.24106,2.19342 -4.00971,4.69868 -6.7491,6.52936 -1.1983,0.80186 -4.31216,0.25668 -7.10052,0.33941 -0.0259,0.14213 -0.193,1.01186 -0.35719,1.87735 -2.96984,-0.23122 -5.70346,-0.44335 -7.42602,-0.57699 -2.07111,0.88246 -3.46817,1.48067 -4.86811,2.07675 -0.72589,-1.16459 -1.70528,-2.37161 -2.05959,-3.48954 -1.88963,-5.96085 -2.10855,-6.43815 -4.44466,-9.55858 -1.35097,-1.80735 -8.95559,-5.38174 -10.45347,1.16035 -0.003,0.0106 -0.006,0.0233 -0.006,0.0339 m 39.87239,-42.97119 132.73514,0 0,39.09982 -132.73514,0 z m 0,0 m 423.51671,78.51147 0,-117.29946 C 605.61117,229.31355 78.576611,152.7367 19.931761,148.02105 l 0,332.34848 C 59.850241,477.80064 633.70216,392.00461 711.27215,372.84502 Z m 0,0 M 88.261111,226.28221 c 4.84506,0.51971 9.5461,1.1158 14.322029,1.65885 -3.387519,3.33681 -35.203049,30.36855 12.08961,55.58234 -0.28806,-4.29776 3.29534,-10.56409 5.52199,-19.36324 1.75713,-6.93666 3.22332,-17.27375 -0.50986,-23.42765 3.90889,5.10597 10.70408,12.0405 24.01504,13.9921 10.56869,1.55067 18.58811,-0.65336 27.77414,0.56427 -0.80079,-2.32495 -1.98181,-7.92518 -9.73622,-16.75192 -3.53154,-4.01986 -6.08081,-4.95748 -10.60038,-6.33632 11.64314,1.17944 23.19985,2.50313 34.29856,3.92016 -0.0864,5.65963 -2.50606,13.53178 -2.73075,19.70052 -0.42344,11.55685 4.93724,16.3913 6.85856,18.7417 2.17481,2.66223 8.99016,7.81699 11.8851,11.99808 1.37401,-1.30248 5.55943,-7.92094 6.71741,-10.81015 1.65918,-4.13442 7.25895,-15.57884 3.72453,-24.0195 -2.92374,-6.97907 -5.44997,-9.74525 -8.27578,-13.17751 20.90694,2.95709 40.61845,6.24298 58.81769,9.60949 -7.87539,4.70292 -13.23031,11.612 -15.67301,15.42822 -3.71589,5.806 -7.11204,20.07387 -12.72045,24.53921 7.16678,-0.49214 18.67164,3.08649 33.6562,-9.65828 10.48803,-8.92644 9.50288,-13.37268 10.31808,-22.57489 0.82095,3.24983 0.39751,16.55463 27.23548,19.78749 l 0.91024,0.19093 c -0.75182,-2.93377 2.71635,-11.44867 -3.88296,-19.70053 l 33.82615,7.94427 c 0.2362,4.37413 1.29912,13.47875 2.95255,16.4613 3.49409,6.29602 12.92785,7.61335 17.55687,9.71132 0.99666,-2.91891 3.86568,-10.1377 1.73696,-16.2916 -0.77486,-2.23797 -2.09703,-4.33382 -3.255,-5.26082 10.07899,2.62829 15.94377,4.29351 23.51094,6.22814 -2.1316,0.73821 -4.06444,1.78825 -7.10917,4.1726 -3.71301,2.91254 -2.71923,7.75759 -5.51335,11.01591 3.39327,0.053 9.02761,0.0743 13.87267,-2.39282 2.48878,-1.26854 5.62281,-5.69146 7.77457,-8.71643 0.29093,2.05342 0.80079,6.81998 4.09613,7.95912 3.73317,1.29187 11.55383,1.2452 13.33976,1.80099 -0.0662,-1.9516 1.64767,-11.24502 -8.01942,-12.92297 14.07431,-2.24858 14.07143,-15.55338 13.1439,-17.55589 -2.65298,1.77341 -16.44787,1.99827 -17.85357,12.27173 -4.68376,-1.20278 -14.67634,-4.72838 -29.62921,-9.48858 5.72363,-1.78826 12.74062,-8.79491 15.24957,-11.36169 -7.64207,-0.0764 -17.2429,-5.08052 -28.38769,7.24849 -1.13493,-0.3479 -2.37933,-0.69579 -3.54883,-1.05217 1.5238,-3.58076 2.73939,-9.11099 1.037,-13.51269 -2.09992,-5.43265 -13.65087,-11.55897 -16.42194,-13.49996 -0.0317,2.57739 -3.49986,8.24974 -3.82536,13.74179 -0.16419,2.7683 0.43208,5.96298 1.82915,8.07579 -11.94559,-3.42802 -25.28536,-7.00241 -39.95594,-10.63196 7.7112,-4.16835 12.89329,-10.64468 16.90587,-19.60506 4.34673,-9.70496 -2.19208,-24.02162 -3.713,-27.63844 -2.51183,4.70505 -7.55277,6.7012 -12.51594,10.72318 -7.18406,5.82297 -11.42133,10.64893 -13.75168,17.03829 -2.55215,6.99605 -2.96119,12.41598 -2.84021,15.44095 -6.45528,-1.49551 -13.13237,-2.75557 -20.00533,-4.21078 5.74955,-3.15437 13.80641,-10.11648 14.66481,-12.30354 -12.43239,-2.49678 -16.12812,-2.93801 -21.07689,-2.92952 -10.80489,0.0127 -19.06051,1.1752 -29.4362,6.87089 4.47636,-1.97493 13.74016,-8.14155 17.34947,-12.99296 6.2018,-8.3346 7.75729,-18.45533 11.95999,-23.06491 -3.07929,0.80397 -8.7165,1.12217 -12.72045,1.99402 -10.42179,2.26979 -20.86085,8.12883 -24.32613,10.80379 -4.96605,3.82895 -9.92346,9.40585 -13.14102,15.25215 l -0.23908,-0.0933 c 2.10855,-5.66599 3.22044,-12.21445 0.48681,-18.3344 -6.01168,-13.46602 -15.94665,-15.59581 -19.61934,-21.66485 -1.71968,4.71353 -8.5235,24.28678 -6.04624,32.11014 1.50076,4.74959 3.36735,8.1967 5.30018,10.93106 -9.46256,-1.29399 -19.15557,-2.42041 -29.05885,-3.48742 5.17056,-2.68769 8.65025,-6.37875 10.78185,-8.36004 2.45997,-2.28889 8.47166,-12.59629 9.14282,-14.22333 -8.25849,1.70552 -13.35128,0.63639 -17.75563,0.5982 -6.13554,-0.0509 -11.26577,-0.33304 -22.3472,6.97908 -5.13024,3.3856 -9.88312,8.52551 -14.57552,11.81141 -7.93012,-0.57275 -16.058989,-1.05217 -24.208029,-1.44036 12.706049,-2.79588 18.308689,-8.32187 20.267459,-11.40412 1.90691,-3.00164 5.7265,-10.47498 9.35598,-14.49909 -1.80034,-0.62791 -10.12509,-1.50188 -13.56157,-1.33218 -4.917069,0.24395 -15.678759,2.30373 -24.176339,8.93916 -7.55565,5.90359 -8.08279,7.94852 -11.70363,12.06809 2.20362,-3.98805 3.21756,-5.70206 4.09037,-8.51702 1.109,-3.58076 1.2127,-6.89424 0.81519,-11.04562 -0.42344,-4.41019 -2.51183,-8.20095 -5.61993,-12.2887 -5.46726,-7.19121 -16.07628,-9.45464 -18.9136,-9.84708 1.17813,5.7063 -3.0044,10.43892 -4.83931,19.27627 -1.44891,6.96635 -4.27183,14.81092 -0.2506,20.81845 -4.15086,-4.95749 -9.45681,-9.1407 -22.89163,-10.64681 -10.6637499,-1.19642 -18.6082699,1.26217 -27.8720799,0.35213 0.90737,2.28888 3.0649,12.04263 5.53928,16.80919 2.4715,4.76444 5.28002,7.77881 16.6927099,10.90137 0.87568,0.2397 5.67754,1.52945 8.35356,1.84553 -15.7997499,3.86925 -16.8165799,15.92036 -23.5339899,22.11244 1.30488,0.25668 14.3911599,-0.86761 16.7992899,-1.3046 3.44224,-0.62578 13.10356,-2.8383 18.82719,-7.95276 5.86189,-5.23749 9.20908,-9.09401 11.29459,-12.38203 6.8067,0.61517 13.61917,1.2452 20.33659,1.91129 -1.08885,-1.32582 -1.75425,-2.20191 -2.46574,-3.06528 0.9765,-0.41365 1.14645,-0.48578 2.12007,-0.89943 6.76062,0.40729 13.93028,0.52608 19.97652,1.44036 2.43118,0.36698 2.21514,2.61769 3.20316,4.01138 -0.40039,0.17607 -1.04275,0.46669 -1.48059,0.65761 z m 0,0 M 247.58648,407.25252 c -0.0346,-0.53456 0.0375,-0.77003 -0.0922,-1.19004 -0.82672,-2.65375 -1.69664,-5.34568 -2.55215,-8.02701 3.05336,3.21165 6.41783,5.9651 9.07945,9.74738 3.4768,4.94263 6.39479,10.69772 9.55185,16.1028 -2.57807,-1.21551 -4.91419,-1.87099 -7.79473,-3.78653 -3.61508,-2.40131 -7.58157,-4.64565 -12.42663,-14.11301 1.63614,0.4879 2.98999,0.89306 4.23438,1.26641 z m 0,0 M 2.5276811,465.88741 c 8.8547799,-1.03308 13.5903799,-6.33845 16.4593899,-16.89829 -5.93678,6.22814 -16.3816099,9.24675 -16.4593899,16.89829 z m 0,0 M 170.66175,355.81946 c -2.04807,-5.76358 -6.2018,-8.19459 -24.33766,-14.12575 9.02184,5.15477 10.40738,10.60863 24.33766,14.12575 z m 0,0 M 35.011501,382.06844 c 4.04715,3.01861 6.69437,4.99566 9.34158,6.97059 0.47817,0.93125 0.56171,1.09459 1.03699,2.02585 -5.14175,-1.01611 -10.50243,-4.79202 -16.51699,-6.95787 -2.42254,-0.86974 -6.29974,-3.46621 -10.48804,-6.66089 -0.25061,-0.46244 -1.57277,-0.0509 -1.8205,-0.51547 -1.3164,-0.33517 2.2353,-2.02585 0.92465,-2.35253 l 0.1786,-0.23334 c -10.3353699,-2.66435 -20.2760999,-3.52136 -27.75398,-1.80947 12.4986501,10.54287 24.36647,20.55117 36.50217,30.78857 -4.09325,1.39581 -8.02518,2.7386 -13.90147,4.74322 5.07838,2.90407 8.26426,5.57478 12.07521,6.72028 7.03715,2.11494 14.46029,3.25408 21.68468,4.94476 11.56536,2.7089 12.59083,2.28889 14.26154,-6.16874 l 0.35718,-1.22824 11.22258,8.22853 c -2.30731,1.25581 -3.49986,2.02372 -8.11448,4.56292 -8.63585,4.24048 -17.03549,8.47884 -26.68529,11.70746 -9.93785,-8.53612 -10.53988,3.08861 -15.37631,4.64565 -0.45224,0.14425 -0.66252,-0.12516 -1.87235,-0.36063 1.53821,-3.20104 2.8719,-6.38935 4.58294,-9.43766 2.65009,-4.7199 0.64524,-8.3155 -5.9195,-10.57045 -9.3588699,-3.21165 -18.7724599,-5.11445 -30.43,-0.4688 7.9042001,7.43516 15.2610901,14.35696 23.41589,22.02971 -3.2953399,-0.53457 -5.7697199,-0.9058 -8.2325799,-1.34279 -6.07505,-1.07761 -11.28306,-0.18879 -12.38054,3.27954 l 0.93041,0.54305 c -0.56459,0.71488 3.69285,0.1591 3.13402,0.88458 0.31974,0.35214 -1.03699,0.6767 -0.72013,1.02883 0.47529,3.45136 0.53002,6.44876 -0.22756,7.9167 -1.88964,3.65076 -1.61022,7.89761 -4.10765,10.56832 -0.6567601,-0.69791 -0.7719801,-0.82094 -1.4258701,-1.51885 l -0.30245,-1.56976 c -1.65919,3.81622 -3.90313,7.45849 -6.57339,11.02015 -0.60779,0.80822 -0.0115,2.18283 0.0288,3.39197 17.8161201,-1.37249 43.37224,-12.44992 50.00612,-21.08574 10.88267,3.98168 21.69044,7.93791 32.49822,11.89202 1.28184,-0.82731 1.43738,-0.92913 2.71634,-1.75644 -1.96164,-4.21715 -2.75091,-9.10462 -6.31702,-12.39901 -2.79124,-2.58162 -5.75531,-5.20567 -8.86629,-7.62607 15.16891,-5.81024 29.26914,-11.85383 43.571,-18.00349 -3.23484,12.76388 -6.10385,24.35042 -9.03048,35.88605 1.8061,0.79974 1.6275,0.71913 3.4336,1.51886 5.27138,-3.98593 10.286399,-8.08428 15.503049,-12.11687 1.12341,-0.45184 -3.19163,-1.66947 -2.06534,-2.13403 0.023,-0.4773 1.5094,-0.21213 1.53244,-0.69155 2.58672,-3.54681 5.14752,-6.48057 7.09764,-7.57941 4.85083,-2.73223 8.30171,-6.97059 12.83856,-8.49157 -0.026,0.95884 -0.0317,1.1243 -0.0576,2.08312 -1.38842,1.84978 -2.73651,3.7844 -4.64631,6.3236 9.69589,-5.94812 22.14845,-9.76435 18.34902,-23.39159 14.99319,6.37027 22.94636,-0.0148 32.88709,-4.69444 -1.24727,-0.97155 -2.18056,-1.84977 -2.99287,-2.53495 3.29533,-1.64188 7.82353,-3.97108 13.06899,-6.68634 1.19543,-0.35426 -2.9295,-1.95584 -1.7312,-2.3207 0.0951,-0.46669 1.54973,-0.087 1.64191,-0.55367 3.11385,-3.2774 6.11249,-5.95236 8.23545,-6.87513 5.26562,-2.28888 6.51865,-4.64565 11.28594,-5.7763 0.0115,-0.002 0.0202,0.004 0.0202,0.0127 -0.12387,0.90367 2.64433,-0.43275 2.48014,0.50062 -1.98181,2.02797 -4.25456,4.24685 -7.28488,7.34819 14.80308,-7.76184 30.65179,-16.13249 39.71684,-20.98391 -0.0461,3.06316 0.25637,6.2048 0.21028,9.29554 -5.10719,-0.51972 -9.59219,-1.82644 -12.69453,-0.94186 -1.61598,0.46033 -0.7979,4.78354 -1.10324,7.61547 -2.50607,-0.91003 -4.87675,-1.76916 -8.3622,-3.03558 3.09946,8.46187 -1.7456,13.19237 -8.51775,17.72771 -6.18163,4.14078 -10.99789,9.39313 -17.26018,14.8979 19.50124,5.84843 28.45683,-2.67284 37.25975,-9.02613 2.69906,2.83194 4.96893,5.81449 7.27623,8.5552 l 0.10658,0.0276 c 0.8152,0.85701 1.74273,-2.29312 2.57521,-1.43188 0.64524,0.0318 0.56746,1.13702 1.2127,1.17096 5.24258,2.05767 9.65556,4.07715 11.49334,5.57478 4.56853,3.72925 10.89707,6.45936 13.78049,9.91284 -1.29048,-0.0509 -1.39706,-0.0679 -2.68754,-0.12091 5.49895,1.79462 11.26002,3.37287 16.79065,4.97869 9.54034,2.77466 12.70029,0.24395 9.55763,-7.12969 -4.40146,-10.32862 -6.46105,-21.48878 -19.90163,-27.73813 8.01653,-5.06143 15.18042,-9.58617 22.34432,-14.1109 -3.45088,-2.47132 -5.02654,-2.99103 -6.57338,-3.06952 -7.20711,-0.3585 -14.41997,-0.50063 -21.62132,-0.86974 -4.47347,-0.46668 -4.53396,-4.05805 -4.55124,-6.24086 -0.0346,-5.09749 -0.0317,-8.91371 0.21315,-12.06172 0.0461,-0.33729 0.0576,-0.47517 0.10082,-0.85064 16.3701,-4.36564 44.08663,-7.73639 54.7763,-9.10463 -2.11144,-3.58712 -7.45484,-10.00193 -10.61767,-9.97648 -4.8537,0.0424 -10.19998,0.3288 -15.40799,0.74246 -1.49212,0.1994 -3.16282,0.13364 -4.64919,0.33728 0.50698,0.087 1.01395,0.17395 1.52093,0.26093 -0.55307,0.90155 0.30246,2.22312 -1.93284,2.62617 -6.05777,1.09459 -13.67103,1.72886 -20.52958,2.58798 -0.40328,-0.41153 -0.16996,-0.17182 -0.57324,-0.58336 0.46665,-0.60669 0.9333,-1.2155 1.68512,-2.19342 -3.39327,0.94398 -5.29443,1.93463 -8.63585,2.31646 l -0.0605,0.0255 c -6.83264,2.00251 -13.35705,4.60535 -21.41967,8.03125 -4.67223,1.22823 -14.82612,0.10394 -19.93908,-2.35464 -5.87054,-2.46284 -5.73803,-3.52773 -3.85416,-6.70119 2.80277,-4.71566 5.40677,-9.51192 8.44862,-14.8979 -16.68983,-0.96944 -24.22244,6.03934 -30.57114,15.58944 -6.8528,-11.60352 -15.34174,-19.15111 -30.61435,-22.9949 -8.42557,-2.12131 -15.47712,-8.59552 -25.91619,-14.73668 3.26077,8.95825 6.08946,17.59619 10.27776,25.57652 l -0.0893,-0.0106 c -4.09324,-3.40257 -6.77214,-5.62781 -9.45104,-7.85518 -1.29624,-0.4476 -1.5238,-0.52608 -2.82293,-0.97368 1.20407,4.08987 6.31126,8.57642 9.10538,13.44481 1.12053,1.95584 4.62327,5.19294 8.95847,8.72067 0.64524,0.23122 0.003,1.22823 0.64812,1.46157 0.41768,1.05217 2.97272,-1.574 3.37599,-0.5282 l 1.65631,0.94186 c 3.09081,3.30711 5.1792,5.27355 9.55186,8.16276 -5.97423,6.12632 -11.74683,12.04263 -18.17042,18.62927 14.74546,2.82769 18.75805,2.31222 28.35024,-1.30672 2.98711,-1.12641 7.1034,-1.5337 10.61766,-1.1052 7.95892,0.9758 11.25713,-1.67795 8.10871,-7.56668 -1.57277,-2.94012 -3.68709,-5.75509 -6.19603,-9.60737 10.85962,4.7008 8.33626,6.78604 19.98228,4.79202 4.41298,1.56764 2.18056,0.79973 7.39721,2.74072 -3.95497,2.88285 -4.81913,2.95073 -7.36553,4.21502 -13.527,6.70544 -21.72788,9.3507 -35.34995,15.95855 l -15.86887,6.64816 c -6.67997,0.94398 -8.53504,0.96519 -15.22652,1.91341 -3.96074,-4.25745 -3.5373,-14.18726 -14.53519,-6.76058 -0.49833,0.33516 -2.18345,0.23546 -2.81717,-0.14637 -9.87736,-5.96086 -20.192559,-3.59561 -30.274439,-3.26044 -6.44952,0.21213 -7.54701,-1.84129 -7.16966,-5.96722 0.28518,-3.14377 -0.56458,-6.43815 -0.96498,-10.2077 -14.34507,2.12978 -15.36478,11.27895 -20.23289,18.07348 -6.438,-5.63842 -14.95286,-10.70621 -24.05248,-14.65395 z m 0,0 m 72.385009,28.65665 c -8.537909,-3.88197 -17.507899,-7.95912 -26.477889,-12.03626 -1.85219,1.49764 -5.14464,5.63418 2.44557,10.83561 10.87691,7.45425 12.69741,7.5582 24.032319,1.20065 z"
     id="path3343"
     inkscape:connector-curvature="0" />
  <text
     id="text3342"
     transform="rotate(0, 233.03912, 376.90604)"
     y="376.90604"
     x="233.03912">
    <tspan
       id="tspan3344"
       dy="44.000000672"
       style="font-size:100.000001344;vertical-align:bottom;fill-opacity:1.0;font-style:normal;fill:#000000;font-weight:normal;stroke:none;text-anchor:start;text-align:center"
       sodipodi:role="line">155.2908 in</tspan>
  </text>
</svg>
